{"glyphs":{":":{"x_min":0,"x_max":283,"ha":283,"o":"m 37 72 q 40 37 70 12 q 100 -13 145 -13 q 188 -13 222 12 q 255 37 255 79 q 255 115 228 141 q 193 174 146 174 q 96 174 64 144 q 33 113 37 72 z m 39 432 q 39 467 69 492 q 99 517 149 517 q 191 517 228 488 q 255 465 255 431 q 255 395 227 374 q 193 345 147 345 q 99 345 69 371 q 39 397 39 432 z"},"$":{"x_min":0,"x_max":776,"ha":776,"o":"m 355 735 l 355 791 l 421 791 l 421 730 q 443 729 458 727 q 503 720 553 698 q 572 690 596 672 l 622 720 l 730 720 l 730 468 l 618 468 l 613 486 q 577 598 448 626 q 431 633 425 634 q 418 636 418 631 l 417 463 q 446 461 457 460 q 468 459 487 456 q 627 429 691 376 q 752 326 761 241 q 762 234 762 228 q 762 221 762 214 q 762 121 698 64 q 633 6 500 -10 q 484 -12 457 -12 q 430 -12 417 -12 l 417 -85 l 349 -85 l 349 -9 l 315 -4 q 247 10 202 33 q 184 42 178 46 q 172 50 160 59 l 133 0 l 25 0 l 25 280 l 143 280 q 150 246 166 220 q 183 193 215 164 q 234 148 259 134 q 284 121 329 105 l 352 98 l 352 275 l 314 282 q 162 310 89 366 q 16 422 16 504 q 16 543 30 581 q 53 648 121 690 q 196 736 304 736 z m 460 98 q 522 107 539 140 q 548 158 548 174 q 548 233 429 261 l 417 263 l 417 95 z m 329 623 q 306 619 291 613 q 276 607 265 598 q 242 578 242 549 q 242 514 274 497 q 288 491 296 490 l 353 478 l 354 627 z"},"?":{"x_min":0,"x_max":580,"ha":580,"o":"m 169 72 q 172 37 202 12 q 232 -13 277 -13 q 321 -13 354 13 q 388 39 388 80 q 388 116 361 140 q 325 174 279 174 q 228 174 196 144 q 165 113 169 72 z m 330 212 l 216 212 q 215 219 215 233 q 215 265 228 296 q 242 328 276 376 l 291 396 l 311 423 q 325 444 334 459 q 339 468 343 476 q 347 484 350 498 q 353 513 353 523 q 353 564 326 592 q 298 621 251 626 q 245 627 232 627 q 218 627 201 624 q 155 616 132 592 q 110 567 110 531 q 134 555 166 555 q 214 555 240 509 q 250 492 250 471 q 250 441 230 416 q 209 390 174 381 q 157 376 142 376 q 83 376 46 414 q 9 452 9 513 q 9 535 15 561 q 35 637 120 682 q 205 728 334 728 q 373 728 404 720 q 434 711 465 695 q 517 668 546 623 q 575 578 575 528 q 575 497 564 470 q 554 443 532 419 q 515 401 491 383 q 467 365 406 325 l 384 311 l 374 303 q 330 265 330 223 z"},"'":{"x_min":0,"x_max":224,"ha":224,"o":"m 29 468 l 51 720 l 195 720 l 173 468 z"},"a":{"x_min":0,"x_max":704,"ha":704,"o":"m 173 425 q 191 420 202 405 q 213 390 213 370 q 213 355 205 338 q 197 321 177 309 q 157 297 129 297 q 124 297 110 299 q 75 305 55 327 q 35 349 35 379 q 35 395 45 417 q 69 464 134 489 q 207 517 327 517 q 456 517 516 475 q 570 437 570 362 l 571 135 q 571 107 591 102 q 613 96 621 126 q 623 136 625 159 q 628 163 625 183 l 698 183 l 698 165 q 698 71 670 34 q 642 -3 566 -11 q 554 -13 542 -13 q 529 -13 523 -13 q 479 -13 448 -2 q 418 10 400 31 q 387 47 379 68 q 352 28 304 4 q 257 -19 194 -19 q 104 -19 60 20 q 17 58 17 127 q 17 234 136 259 l 249 283 q 318 301 341 320 q 364 339 364 375 q 364 403 346 420 q 327 438 294 438 l 251 441 q 231 441 200 433 q 190 431 173 425 z m 272 199 l 261 194 q 223 171 223 147 q 223 134 231 119 q 236 109 250 100 q 264 92 283 92 q 299 92 314 98 q 328 105 344 123 q 360 141 360 176 l 361 245 q 353 240 312 219 q 299 213 272 199 z"},"L":{"x_min":0,"x_max":798,"ha":798,"o":"m 6 0 l 6 104 l 78 104 l 94 105 l 100 105 q 116 105 120 138 l 121 151 l 121 201 l 121 569 q 121 595 116 604 q 111 613 97 615 l 90 615 l 78 615 l 6 615 l 6 720 l 482 720 l 482 615 l 409 615 l 398 615 l 390 615 q 377 613 371 604 q 365 594 365 569 l 365 110 l 441 110 q 569 110 613 140 q 657 171 657 261 l 659 300 l 787 300 l 787 0 z"},"3":{"x_min":0,"x_max":737,"ha":737,"o":"m 174 115 q 211 93 267 87 l 304 87 q 356 87 392 112 q 428 138 439 174 q 442 184 443 189 q 444 194 444 204 q 444 243 414 270 q 383 298 327 305 l 304 307 l 293 308 l 283 308 l 283 400 l 297 400 q 355 400 384 416 q 414 433 424 468 q 428 480 428 495 q 428 534 392 560 q 355 586 289 586 l 251 583 q 201 576 175 553 q 204 553 226 542 l 244 529 q 268 506 268 475 q 268 436 234 412 q 226 406 218 403 q 211 400 206 398 q 185 392 165 392 q 119 392 88 422 q 57 452 57 499 q 57 578 138 626 q 226 678 388 678 q 523 678 599 625 q 668 577 668 505 q 668 486 662 466 q 641 394 552 368 l 523 362 l 537 358 q 695 305 695 196 q 695 164 682 129 q 657 61 566 26 q 474 -9 308 -9 q 230 -9 167 17 q 114 39 76 77 q 56 97 46 124 q 36 150 36 175 q 36 211 53 240 q 70 268 102 281 q 112 285 127 288 q 142 291 152 291 q 190 291 218 272 q 245 254 254 222 q 257 210 257 199 q 257 140 191 119 z"},";":{"x_min":0,"x_max":283,"ha":283,"o":"m 76 -132 l 95 -124 q 173 -87 214 -38 q 254 10 254 59 q 254 106 218 140 q 183 174 137 174 q 96 174 66 147 q 37 120 37 81 q 37 32 80 10 q 94 2 106 0 q 118 -1 124 -1 q 131 -1 143 1 q 135 -17 119 -30 q 103 -44 69 -60 l 54 -67 l 45 -70 z m 38 432 q 38 467 68 492 q 99 518 148 518 q 192 518 227 489 q 255 467 255 431 q 255 395 227 374 q 191 346 147 346 q 98 346 68 371 q 38 396 38 432 z"},"J":{"x_min":0,"x_max":700,"ha":700,"o":"m 98 130 q 137 89 200 89 q 209 89 214 89 q 220 90 223 90 q 276 97 301 124 q 326 151 326 207 l 327 221 l 327 569 q 327 615 288 615 l 268 615 l 257 615 l 185 615 l 185 720 l 690 720 l 690 615 l 618 615 l 612 615 l 598 614 q 587 614 582 607 q 576 600 573 581 l 572 569 l 572 229 q 572 102 502 40 q 433 -23 279 -23 q 169 -23 100 6 q 32 35 3 87 q -22 133 -22 178 q -22 249 30 287 q 48 301 70 308 q 92 315 112 315 q 150 315 179 296 q 208 276 218 242 q 222 230 222 215 q 222 186 205 163 q 188 140 160 132 q 144 128 135 128 q 125 128 121 128 q 115 128 110 128 q 102 130 98 130 z"},"V":{"x_min":0,"x_max":805,"ha":805,"o":"m -19 615 l -19 720 l 426 720 l 426 615 l 353 615 l 343 615 l 337 615 q 325 613 325 599 q 325 589 332 569 l 453 219 l 575 569 q 582 589 582 600 q 582 613 570 615 l 564 615 l 554 615 l 482 615 l 482 720 l 824 720 l 824 615 l 783 615 l 767 615 l 763 615 q 750 612 743 597 l 736 582 l 731 569 l 511 0 l 289 0 l 76 569 q 63 605 41 613 l 34 615 l 29 615 l 17 615 z"},"\"":{"x_min":0,"x_max":426,"ha":426,"o":"m 51 720 l 195 720 l 173 468 l 29 468 z m 251 720 l 395 720 l 373 468 l 229 468 z"},"7":{"x_min":0,"x_max":737,"ha":737,"o":"m 53 364 l 53 656 l 160 656 l 160 586 l 182 608 q 244 663 314 663 q 365 663 434 635 q 467 622 482 616 q 497 611 510 608 q 523 606 524 606 q 530 605 542 605 q 595 605 595 655 l 681 655 q 675 585 648 530 q 620 474 536 365 q 510 331 487 289 q 455 227 438 154 q 428 106 423 55 q 423 41 422 27 q 422 13 422 0 l 199 0 l 198 20 q 198 104 220 173 q 243 242 296 311 q 314 333 334 353 q 358 376 404 415 l 476 479 l 497 498 l 523 523 l 500 512 q 456 493 411 493 q 382 493 351 500 l 333 503 l 300 511 q 274 517 255 517 q 224 517 200 501 q 181 488 170 464 q 159 440 155 399 l 155 387 l 155 364 z"},"S":{"x_min":0,"x_max":776,"ha":776,"o":"m 596 672 l 622 720 l 730 720 l 730 468 l 618 468 l 613 486 q 591 553 536 592 q 480 631 395 631 q 381 631 368 631 q 356 631 331 628 q 306 624 288 618 q 269 611 255 598 q 236 580 236 553 q 236 527 253 512 q 259 507 267 503 q 284 494 307 490 l 369 476 l 446 462 q 613 432 685 380 q 752 331 761 241 q 762 232 762 216 q 762 107 670 50 q 572 -11 379 -11 q 317 -11 265 6 q 213 24 160 59 l 133 0 l 25 0 l 25 280 l 143 280 q 149 248 166 220 q 183 192 214 165 q 236 146 268 130 q 301 114 338 104 q 374 95 407 95 q 479 95 512 118 q 545 141 545 181 q 545 237 456 256 l 372 273 l 365 274 q 298 285 273 290 q 248 295 224 301 q 16 358 16 505 q 16 541 30 581 q 55 651 130 693 q 213 739 338 739 q 381 739 431 733 l 469 726 q 512 717 540 705 q 568 693 596 672 z"},"}":{"x_min":0,"x_max":367,"ha":367,"o":"m 29 -122 l 29 -36 l 42 -36 q 72 -36 85 -25 q 98 -14 98 12 l 98 266 q 98 295 115 318 q 132 342 161 354 l 187 360 l 161 366 q 132 378 115 402 q 98 425 98 454 l 98 708 q 98 734 86 745 q 74 756 42 756 l 29 756 l 29 842 l 172 842 q 219 842 245 816 q 271 790 271 742 l 271 432 q 271 401 290 380 q 310 360 338 360 q 310 360 290 340 q 271 319 271 288 l 271 -22 q 271 -70 245 -96 q 219 -122 172 -122 z"},"Z":{"x_min":0,"x_max":746,"ha":746,"o":"m 6 0 l 6 134 l 443 614 l 321 614 l 310 614 l 270 612 q 160 612 160 496 l 158 452 l 31 452 l 31 720 l 731 720 l 731 602 l 278 106 l 458 106 q 525 106 566 142 q 606 179 606 241 l 608 274 l 731 274 l 731 0 z"},"x":{"x_min":0,"x_max":722,"ha":722,"o":"m -4 0 l -4 97 l 39 97 q 57 97 68 100 q 78 103 97 115 l 107 122 l 115 129 l 134 144 l 249 241 l 127 358 l 124 361 l 104 380 q 90 394 78 400 q 67 405 53 405 l 47 405 l 18 405 l 18 504 l 392 504 l 392 403 l 382 403 l 371 403 q 354 400 360 389 l 367 379 l 386 356 l 417 320 l 451 357 l 473 379 l 481 390 q 484 394 480 398 q 475 402 470 403 l 467 404 l 447 404 l 447 504 l 706 504 l 706 403 l 684 403 q 666 403 663 402 q 654 397 650 394 l 636 384 l 628 379 l 620 372 l 600 356 l 492 267 l 621 144 l 647 122 l 660 112 l 667 106 q 676 100 683 98 q 690 97 700 97 l 726 97 l 726 0 l 342 0 l 342 97 l 353 97 l 372 99 q 383 102 383 111 q 383 117 379 122 l 364 144 l 329 186 l 289 144 l 282 137 l 268 122 q 262 114 262 110 q 262 104 270 99 l 272 97 l 292 97 l 292 0 z"},")":{"x_min":0,"x_max":450,"ha":450,"o":"m 0 -129 l 0 -39 q 82 -27 134 36 q 185 99 185 202 q 185 497 148 607 q 110 717 5 731 l 5 825 q 63 825 114 812 q 261 773 342 670 q 427 562 427 396 q 427 373 427 362 q 427 345 427 337 q 427 318 426 299 q 425 280 422 262 q 400 107 316 9 q 232 -89 99 -119 q 53 -129 0 -129 z"},"&":{"x_min":0,"x_max":908,"ha":908,"o":"m 199 419 l 191 434 q 159 501 159 548 q 159 607 206 660 q 253 712 326 723 q 335 725 344 725 q 353 725 358 725 q 404 725 442 708 q 479 690 503 657 q 519 636 527 612 q 535 587 535 564 q 535 478 440 419 l 422 409 q 432 394 482 332 q 536 265 564 235 l 592 265 q 607 285 615 303 q 623 321 617 327 q 614 334 612 337 q 605 347 598 347 l 538 350 l 538 445 l 847 445 l 847 356 l 819 356 l 812 355 q 775 351 756 338 q 737 324 710 280 l 680 232 q 676 226 664 210 q 651 195 644 187 l 625 166 l 644 149 l 659 137 q 678 123 694 117 q 711 111 727 111 q 759 111 778 132 q 798 154 798 194 l 799 265 l 893 265 l 893 213 q 893 196 893 180 q 890 166 889 160 q 880 88 824 43 q 769 -2 688 -2 q 650 -2 612 8 q 573 19 533 41 l 507 56 l 483 44 q 382 -5 303 -5 q 173 -5 92 60 q 11 124 11 214 q 11 241 20 270 q 35 314 70 346 q 104 377 180 411 z m 404 517 q 419 532 419 562 q 419 590 406 612 q 393 633 372 633 q 370 633 362 631 q 343 625 333 614 q 323 603 323 583 q 323 567 330 550 q 336 533 352 509 l 365 490 z m 247 327 q 220 310 206 282 q 192 254 192 231 q 192 207 209 174 q 226 141 260 123 q 293 105 337 105 q 345 105 348 105 q 355 105 367 107 q 398 113 425 126 l 258 333 z"},"_":{"x_min":0,"x_max":418,"ha":418,"o":"m 29 -43 l 29 0 l 389 0 l 389 -43 z"},"v":{"x_min":0,"x_max":624,"ha":624,"o":"m -19 404 l -19 504 l 346 504 l 346 405 l 295 405 q 270 405 270 386 q 270 375 277 358 l 356 151 l 435 358 l 438 365 q 443 383 443 390 q 443 405 423 405 l 399 405 l 399 504 l 643 504 l 643 405 l 596 405 q 585 405 578 394 l 574 386 l 570 380 l 566 372 l 561 358 l 413 0 l 212 0 l 64 357 l 57 373 l 54 380 l 51 386 l 45 395 q 40 402 37 403 q 34 404 17 404 z"},"O":{"x_min":0,"x_max":888,"ha":888,"o":"m 19 366 q 19 536 126 640 q 238 749 432 749 q 473 749 520 743 q 662 725 750 651 q 839 577 859 469 q 869 416 869 363 q 869 192 760 88 q 650 -17 458 -17 q 415 -17 368 -11 q 199 10 107 113 q 19 212 19 366 z m 482 93 q 534 107 569 160 q 609 221 609 314 q 609 478 564 561 q 518 644 443 644 q 427 644 405 639 q 348 624 314 559 q 276 486 276 366 q 276 229 325 155 q 370 87 442 87 q 461 87 482 93 z"},"(":{"x_min":0,"x_max":450,"ha":450,"o":"m 450 825 l 450 736 q 367 723 318 663 q 265 598 265 494 q 265 199 302 89 q 340 -21 444 -35 l 444 -129 q 415 -129 389 -126 q 363 -123 335 -115 q 187 -76 107 26 q 23 133 23 300 q 23 334 24 369 q 24 404 28 434 q 50 589 134 687 q 217 785 351 815 q 374 821 398 823 q 421 825 450 825 z"},"C":{"x_min":0,"x_max":790,"ha":790,"o":"m 645 663 l 677 716 l 784 716 l 784 441 l 658 441 l 656 459 q 642 539 606 578 q 571 616 505 624 q 497 625 490 626 q 482 626 472 626 q 380 626 334 554 q 288 483 288 333 q 288 221 341 158 q 391 98 473 98 q 545 98 592 138 q 639 179 650 254 l 652 284 l 782 284 q 782 272 782 262 q 781 253 781 246 q 770 120 668 52 q 566 -17 386 -17 q 221 -17 120 90 q 18 196 18 357 q 18 400 25 439 q 45 553 133 635 q 221 717 346 734 q 365 737 394 738 q 422 739 423 739 q 497 739 552 720 q 606 700 645 663 z"},"W":{"x_min":0,"x_max":1246,"ha":1246,"o":"m -15 615 l -15 720 l 399 720 l 399 615 l 362 615 l 346 615 l 337 613 q 317 604 317 589 q 317 585 321 569 l 439 197 l 567 569 q 572 584 572 592 q 572 605 561 610 q 550 615 525 615 l 467 615 l 467 720 l 871 720 l 871 615 l 823 615 l 818 615 q 804 613 798 608 q 793 603 793 591 q 793 581 797 569 l 901 214 l 1014 569 q 1021 591 1021 602 q 1021 613 1010 615 l 1004 615 l 994 615 l 936 615 l 936 720 l 1261 720 l 1261 615 l 1230 615 l 1223 615 l 1219 615 l 1205 609 q 1193 603 1188 596 q 1184 590 1176 569 l 964 0 l 733 0 l 629 340 l 516 0 l 270 0 l 80 569 l 73 583 q 55 612 29 615 l 23 615 l 17 615 z"},"A":{"x_min":0,"x_max":880,"ha":880,"o":"m -13 0 l -13 105 l 34 105 q 41 105 52 110 q 77 121 89 151 l 309 720 l 586 720 l 792 151 l 797 139 q 808 117 815 111 q 822 105 839 105 l 893 105 l 893 0 l 457 0 l 457 105 l 540 105 q 556 105 551 123 l 513 229 l 275 229 l 247 151 q 240 131 240 119 q 240 105 253 105 l 342 105 l 342 0 z m 477 338 l 397 564 l 317 338 z"},"f":{"x_min":0,"x_max":471,"ha":471,"o":"m 6 400 l 6 504 l 99 504 l 99 550 q 99 628 132 670 q 165 713 236 728 q 307 742 367 742 q 465 742 525 705 q 579 672 579 624 q 580 617 580 615 q 580 580 560 557 q 540 534 504 527 q 495 525 488 524 q 480 523 470 523 q 434 523 410 538 q 385 554 378 579 q 376 585 376 597 q 376 618 389 634 q 402 651 423 655 l 407 661 q 387 666 374 666 q 301 666 301 570 l 301 556 l 301 504 l 441 504 l 441 400 l 308 400 l 308 145 q 308 118 320 108 q 332 98 368 98 l 380 97 l 430 97 l 430 0 l 6 0 l 6 97 l 58 97 q 82 97 90 106 q 99 116 99 144 l 99 400 z"},"Q":{"x_min":0,"x_max":896,"ha":896,"o":"m 808 144 l 813 138 q 827 123 835 119 q 843 115 857 115 q 881 115 892 125 q 903 135 909 164 l 910 171 l 912 200 l 1004 199 l 1004 167 q 1004 135 1001 114 q 991 42 948 1 q 905 -40 842 -40 q 818 -40 793 -34 q 768 -28 740 -14 q 731 -10 706 7 q 681 24 671 33 q 623 8 568 -4 q 514 -16 446 -16 q 240 -16 130 86 q 20 189 20 366 q 20 544 128 644 q 240 748 446 748 q 652 748 764 644 q 873 543 873 366 q 873 310 841 222 q 831 193 808 144 z m 611 366 q 611 502 563 576 q 519 643 448 643 q 441 643 434 643 q 428 642 409 638 q 351 622 318 551 q 282 473 282 338 q 282 285 298 235 q 307 273 368 315 q 419 351 481 351 q 502 351 524 341 q 539 334 574 313 l 605 294 z m 510 180 q 483 207 465 217 q 447 227 425 227 q 413 227 398 225 q 382 223 366 206 q 351 188 351 163 q 351 145 360 125 q 362 122 378 112 q 394 101 409 97 q 424 93 440 93 q 503 93 546 144 z"},"w":{"x_min":0,"x_max":970,"ha":970,"o":"m -11 406 l -11 504 l 333 504 l 333 406 l 315 406 q 286 406 286 384 q 286 373 290 358 l 348 169 l 411 359 q 415 371 415 382 q 415 406 386 406 l 377 406 l 364 406 l 364 504 l 721 504 l 721 406 l 713 405 l 699 405 q 655 405 655 382 q 655 374 660 359 l 720 180 l 790 358 q 797 375 797 386 q 797 400 776 405 l 772 406 l 750 406 l 750 504 l 981 504 l 981 405 l 967 404 l 963 404 l 954 403 q 938 401 930 394 q 921 388 913 368 l 908 357 l 774 0 l 579 0 l 491 235 l 398 0 l 210 0 l 71 358 q 53 405 15 405 l 12 406 z"},"-":{"x_min":0,"x_max":333,"ha":333,"o":"m 6 180 l 6 338 l 327 338 l 327 180 z"},"E":{"x_min":0,"x_max":851,"ha":851,"o":"m 6 615 l 6 720 l 832 720 l 832 452 l 707 452 l 707 487 q 707 550 666 584 q 624 618 536 618 l 504 619 l 375 619 l 375 427 l 418 427 q 460 427 481 448 q 502 469 502 516 l 502 527 l 614 527 l 614 221 l 506 221 l 506 242 q 506 279 482 302 q 459 326 422 326 l 375 326 l 375 108 l 515 108 q 626 108 666 140 q 707 173 707 262 l 708 294 l 831 294 l 831 0 l 6 0 l 6 105 l 79 105 l 91 105 l 101 105 q 130 105 130 151 l 130 177 l 130 569 q 130 594 124 604 q 118 613 103 615 l 93 615 l 81 615 z"},"s":{"x_min":0,"x_max":598,"ha":598,"o":"m 455 472 l 471 504 l 554 504 l 554 341 l 463 341 l 453 357 q 436 383 418 397 q 399 411 371 420 q 343 428 319 428 q 286 428 270 425 q 253 422 243 415 q 226 403 226 385 q 226 369 240 360 q 253 350 280 344 l 323 335 l 328 334 l 362 328 l 383 324 l 409 318 q 494 297 538 256 q 582 215 582 163 q 582 119 553 75 q 535 49 506 31 q 478 13 430 0 q 382 -14 327 -14 q 315 -14 303 -14 q 292 -12 288 -12 q 204 -3 134 38 l 117 0 l 28 0 l 28 177 l 120 177 q 154 117 232 92 q 252 86 274 84 q 296 82 314 82 l 319 82 l 339 86 q 358 90 367 99 q 376 108 376 121 q 376 128 372 138 q 367 147 354 154 q 342 161 318 166 l 246 182 l 241 183 q 205 190 176 198 q 148 205 133 211 q 16 255 16 347 q 16 363 21 385 q 35 440 97 478 q 166 520 266 520 q 295 520 310 518 q 324 516 346 514 q 368 511 396 500 q 425 490 455 472 z"},"l":{"x_min":0,"x_max":401,"ha":401,"o":"m 6 0 l 6 97 l 65 97 q 88 97 95 114 l 98 122 l 98 144 l 98 174 l 98 576 q 98 605 91 614 q 84 623 62 623 l 6 623 l 6 720 l 307 720 l 307 144 l 307 125 l 308 122 l 310 115 q 318 97 341 97 l 395 97 l 395 0 z"},"8":{"x_min":0,"x_max":737,"ha":737,"o":"m 177 314 l 156 327 q 110 359 92 384 q 73 409 67 446 q 65 460 65 468 q 65 548 140 601 q 223 660 371 660 q 393 660 416 660 q 437 657 446 656 q 500 651 541 638 q 582 624 610 604 q 674 559 674 498 q 674 443 622 403 q 616 399 589 384 q 562 368 558 366 l 593 350 q 713 295 713 196 q 713 168 704 136 q 683 66 618 24 q 545 -23 428 -23 q 348 -23 290 -18 q 231 -14 192 -1 q 153 12 128 24 q 104 37 84 53 q 27 100 27 164 q 27 232 87 274 z m 452 407 q 465 411 493 442 q 525 477 525 494 q 525 530 485 552 q 445 574 364 574 q 353 574 315 562 q 277 551 268 543 q 254 530 254 511 q 254 481 286 466 q 308 455 344 443 z m 226 241 q 193 212 193 173 q 193 132 230 106 q 241 98 294 83 q 346 68 370 68 q 412 68 439 73 q 466 78 481 87 q 518 109 518 143 q 518 164 501 181 q 493 189 452 207 q 410 225 401 228 l 274 267 q 268 269 248 256 q 229 243 226 241 z"},"\\":{"x_min":0,"x_max":328,"ha":328,"o":"m 29 720 l 173 720 l 299 0 l 155 0 z"},"e":{"x_min":0,"x_max":604,"ha":604,"o":"m 586 228 l 225 228 q 222 228 223 221 q 224 214 225 208 q 225 150 259 117 q 290 87 341 87 q 352 87 357 88 q 406 93 428 136 q 435 157 443 179 l 583 179 q 566 76 465 20 q 436 4 408 -4 q 381 -13 341 -13 q 213 -13 127 44 q 41 101 24 199 q 19 231 19 254 q 19 370 101 443 q 183 516 319 516 q 440 516 515 447 q 590 378 590 267 q 590 259 589 248 q 588 238 586 228 z m 392 310 q 398 310 398 317 q 398 323 395 332 q 392 340 390 348 q 384 373 373 388 q 350 418 314 418 q 277 418 253 388 q 243 375 235 353 q 232 342 230 332 q 229 322 228 310 z"},"b":{"x_min":0,"x_max":734,"ha":734,"o":"m 6 623 l 6 720 l 301 720 l 301 457 q 324 477 361 495 q 403 516 443 516 q 564 516 637 456 q 715 392 715 274 q 715 206 703 162 q 691 118 660 79 q 584 -17 456 -17 q 435 -17 414 -14 q 318 0 266 60 l 236 0 l 92 0 l 92 576 q 92 605 88 612 q 81 623 56 623 q 55 624 39 624 q 28 624 18 624 q 14 624 6 623 z m 303 224 q 303 165 320 135 q 337 105 369 94 q 386 88 394 86 q 402 84 414 84 q 444 84 464 112 q 483 141 492 218 q 493 228 494 240 q 494 252 494 258 q 494 320 472 358 q 449 396 416 404 q 402 407 391 407 q 303 407 303 272 z"},"%":{"x_min":0,"x_max":863,"ha":863,"o":"m 60 0 l 140 0 l 812 680 l 732 680 z m 632 356 q 722 356 782 306 q 841 257 841 177 q 841 94 786 45 q 731 -4 632 -4 q 532 -4 474 42 q 417 89 417 171 q 417 254 476 305 q 535 356 632 356 z m 238 688 q 328 688 388 638 q 447 589 447 509 q 447 426 392 377 q 337 328 238 328 q 138 328 80 374 q 23 421 23 503 q 23 586 82 637 q 141 688 238 688 z m 560 170 q 560 125 576 96 q 596 60 632 60 q 665 60 683 99 q 698 132 698 178 q 698 220 680 255 q 662 290 630 290 q 593 290 576 254 q 560 219 560 170 z m 166 502 q 166 457 182 428 q 202 392 238 392 q 271 392 289 431 q 304 464 304 510 q 304 552 286 587 q 268 622 236 622 q 199 622 182 586 q 166 551 166 502 z"},"m":{"x_min":0,"x_max":1120,"ha":1120,"o":"m 11 0 l 11 97 l 61 97 q 96 97 103 123 l 104 145 l 105 156 l 105 356 q 105 403 68 403 l 18 403 l 18 504 l 307 504 l 307 432 q 357 496 451 509 q 460 510 468 510 q 476 511 488 511 q 506 511 524 508 q 575 501 610 480 q 646 458 668 424 q 718 497 816 509 q 824 509 834 510 q 843 511 847 511 q 873 511 899 505 q 973 487 1002 444 q 1032 402 1032 313 l 1032 146 q 1032 114 1042 106 q 1052 97 1060 97 l 1114 97 l 1114 0 l 766 0 l 766 97 l 788 97 l 798 97 q 823 102 823 136 l 823 146 l 823 309 l 822 321 q 818 355 805 370 q 792 385 764 388 q 749 388 734 384 q 720 379 703 366 q 686 353 677 325 q 672 307 672 299 l 672 146 l 674 124 q 674 107 677 103 q 681 98 694 98 l 701 97 l 729 97 l 729 0 l 408 0 l 408 97 l 431 96 l 434 97 l 440 97 q 463 102 463 123 l 463 134 l 464 146 l 464 319 q 464 388 407 388 l 394 388 q 359 385 336 356 q 314 328 314 282 l 314 145 l 314 141 l 315 123 q 315 97 341 97 l 371 97 l 371 0 z"},",":{"x_min":0,"x_max":263,"ha":263,"o":"m 63 -132 l 32 -70 l 41 -67 l 56 -60 q 88 -45 106 -30 q 123 -16 130 1 q 116 -1 108 -1 q 105 -1 93 0 q 81 2 64 11 q 47 20 36 40 q 24 59 24 81 q 24 99 32 116 q 39 133 54 147 q 83 174 125 174 q 170 174 206 140 q 241 106 241 59 q 241 10 203 -36 q 161 -87 82 -124 z"},"n":{"x_min":0,"x_max":772,"ha":772,"o":"m 11 0 l 11 97 l 69 97 q 86 97 94 108 q 101 118 101 144 l 101 157 l 101 356 l 101 376 l 99 386 q 92 403 72 403 l 11 403 l 11 504 l 303 504 l 303 429 q 331 464 368 484 q 406 503 461 509 q 472 511 485 511 q 498 511 504 511 q 592 511 639 474 q 686 437 686 374 l 686 369 l 686 301 l 686 144 l 687 122 q 687 97 707 97 l 766 97 l 766 0 l 422 0 l 422 97 l 441 97 l 447 96 q 462 96 468 104 q 475 112 477 136 l 478 144 l 478 292 q 478 389 410 389 q 393 389 378 384 q 310 364 310 278 l 310 144 l 310 132 l 311 122 q 311 92 343 97 l 347 97 l 374 97 l 374 0 z"},"h":{"x_min":0,"x_max":769,"ha":769,"o":"m 6 0 l 6 97 l 54 97 q 91 97 97 122 l 100 144 l 102 166 l 102 576 l 101 597 q 99 610 85 618 q 77 622 72 623 q 63 623 58 623 l 8 623 l 8 720 l 310 720 l 310 443 q 365 506 460 516 q 470 517 491 517 q 511 517 529 514 q 611 501 648 459 q 685 417 685 339 l 685 144 l 685 133 l 686 122 q 686 97 711 97 l 763 97 l 763 0 l 409 0 l 409 97 l 460 97 l 463 99 q 470 103 472 107 q 475 112 476 122 l 476 144 l 476 309 l 475 324 q 475 397 415 397 q 402 397 381 392 q 360 386 341 367 q 310 336 310 287 l 310 144 l 311 122 l 311 109 q 312 97 325 97 l 373 97 l 373 0 z"},"z":{"x_min":0,"x_max":566,"ha":566,"o":"m 15 0 l 15 123 l 281 400 l 212 400 q 165 400 147 386 q 129 372 125 333 l 124 318 l 124 288 l 28 288 l 28 504 l 549 504 l 549 402 l 260 101 l 333 101 q 398 101 422 122 q 445 143 445 202 l 445 235 l 549 235 l 549 0 z"},"B":{"x_min":0,"x_max":871,"ha":871,"o":"m 4 615 l 4 720 l 513 720 q 623 720 669 712 q 715 703 747 678 q 807 631 807 556 q 807 487 755 441 q 728 415 675 394 l 659 388 l 676 384 q 766 364 812 316 q 859 269 859 202 q 859 184 854 159 q 839 89 786 50 q 733 12 632 2 l 583 0 l 5 0 l 5 105 l 96 105 q 125 105 125 151 l 125 567 q 125 575 125 579 q 125 601 121 608 q 117 615 97 615 z m 476 432 l 491 433 q 539 439 560 462 q 580 484 580 531 q 580 577 554 598 q 529 618 469 618 l 371 618 l 371 432 z m 467 113 l 491 114 q 583 123 598 196 q 601 214 601 229 q 601 327 464 327 l 371 327 l 371 113 z"},"K":{"x_min":0,"x_max":966,"ha":966,"o":"m 6 615 l 6 720 l 470 720 l 470 615 l 397 615 l 389 615 l 386 614 q 380 612 376 606 q 373 599 373 582 l 372 569 l 372 393 l 591 569 q 609 584 615 591 q 621 598 620 604 q 618 613 602 618 l 547 615 l 533 615 l 533 720 l 957 720 l 957 615 l 884 615 l 877 615 l 873 614 q 863 614 856 609 l 851 606 l 838 596 l 805 572 l 801 569 l 660 458 l 862 151 q 877 127 888 118 q 899 108 913 105 l 917 105 l 975 105 l 975 0 l 526 0 l 526 105 l 563 105 l 576 105 l 603 108 q 610 110 610 120 q 610 127 606 135 l 596 151 l 477 315 l 372 228 l 372 151 l 373 142 l 374 123 q 374 106 389 105 l 397 105 l 410 105 l 460 105 l 460 0 l 7 0 l 7 105 l 81 105 l 93 105 l 101 105 q 115 107 121 116 q 127 126 127 151 l 128 166 l 128 569 q 128 595 123 604 q 118 613 102 615 l 93 615 l 81 615 z"},"R":{"x_min":0,"x_max":940,"ha":940,"o":"m 6 614 l 6 720 l 489 720 q 673 720 752 680 q 830 641 830 557 q 830 549 830 545 q 830 538 828 524 q 816 427 701 389 l 668 380 l 683 376 q 739 356 764 318 q 788 280 788 208 l 790 148 q 791 143 791 141 q 795 124 798 120 q 806 107 827 107 q 841 107 849 114 q 857 121 857 138 q 857 140 859 152 q 861 164 861 176 l 861 206 l 955 206 l 955 150 q 955 79 909 36 q 863 -7 775 -7 q 657 -7 607 36 q 554 82 554 192 q 554 288 531 311 q 514 328 446 328 l 375 328 l 375 151 q 375 124 380 114 q 385 105 400 105 l 493 105 l 493 0 l 7 0 l 7 105 l 102 105 q 130 105 130 151 l 130 569 q 130 614 100 614 z m 375 427 l 508 427 q 540 427 566 450 q 591 474 591 509 q 591 565 565 591 q 539 617 480 617 l 375 617 z"},"T":{"x_min":0,"x_max":829,"ha":829,"o":"m 6 442 l 6 720 l 823 720 l 823 442 l 703 442 l 702 465 l 702 473 l 699 493 q 681 613 580 613 l 540 612 l 540 151 q 540 125 545 116 q 550 107 565 105 l 573 105 l 585 105 l 657 105 l 657 0 l 166 0 l 166 105 l 239 105 l 253 105 l 260 105 q 274 106 282 116 q 289 127 292 151 l 295 178 l 295 612 l 249 612 q 198 612 166 580 q 135 549 126 484 l 125 462 l 124 442 z"},"P":{"x_min":0,"x_max":841,"ha":841,"o":"m 6 0 l 6 105 l 95 105 q 128 105 128 151 l 127 569 q 127 615 96 615 l 6 615 l 6 720 l 594 720 q 709 720 776 664 q 840 611 840 526 q 840 511 838 502 q 836 492 836 488 q 824 421 778 380 q 732 338 648 322 q 628 318 602 318 l 372 318 l 372 151 q 372 126 382 114 q 391 103 416 103 l 524 104 l 524 0 z m 478 422 q 589 422 601 509 q 602 514 602 523 q 602 579 544 610 q 531 617 511 620 q 491 622 454 622 l 372 622 l 372 422 z"},"t":{"x_min":0,"x_max":486,"ha":486,"o":"m 0 407 l 0 500 q 10 500 22 502 q 33 503 47 507 q 156 539 172 670 l 174 698 l 298 698 l 298 504 l 476 504 l 476 402 l 298 402 l 298 180 l 298 160 l 298 147 l 298 135 q 301 118 304 113 q 312 93 336 93 q 352 93 362 102 q 373 112 379 128 q 385 144 385 173 l 385 186 l 385 238 l 482 238 l 482 155 q 482 72 434 30 q 386 -11 285 -11 q 176 -11 132 38 q 89 86 89 203 l 89 407 z"},"M":{"x_min":0,"x_max":1181,"ha":1181,"o":"m 6 0 l 6 105 l 78 105 l 91 105 l 100 105 q 114 107 122 117 q 129 127 129 151 l 129 569 q 129 615 102 615 l 92 615 l 80 615 l 6 615 l 6 720 l 470 720 l 596 304 l 715 720 l 1175 720 l 1175 615 l 1099 615 l 1088 615 l 1084 615 q 1068 612 1064 581 l 1064 569 l 1064 151 l 1064 137 q 1068 108 1085 105 l 1091 105 l 1102 105 l 1174 105 l 1174 0 l 727 0 l 727 105 l 785 105 q 808 105 814 112 q 819 118 819 151 l 819 609 l 643 0 l 456 0 l 274 600 l 274 151 l 274 128 l 274 124 q 274 105 297 105 l 369 105 l 369 0 z"},"g":{"x_min":0,"x_max":702,"ha":702,"o":"m 86 -38 l 66 -26 q 18 9 18 55 q 18 101 66 139 q 90 158 113 167 l 95 183 q 67 211 52 246 q 36 280 36 317 q 36 365 60 406 q 83 447 130 475 q 156 490 216 502 q 277 513 336 513 q 384 509 422 495 q 461 481 495 458 q 510 478 546 497 q 582 516 617 516 q 630 516 642 513 q 684 501 705 482 q 726 464 731 431 q 732 425 732 413 q 732 377 711 355 q 690 333 657 333 q 648 333 644 334 q 617 338 600 356 q 584 375 584 403 q 584 425 594 442 q 564 449 550 417 q 549 415 548 410 q 547 405 547 396 q 547 391 548 381 l 554 359 q 559 334 559 314 q 559 238 502 186 q 445 134 343 123 q 340 122 335 122 q 326 122 322 122 q 293 122 251 125 q 209 128 196 130 l 173 136 q 161 138 160 138 q 155 138 150 133 q 141 124 141 116 q 141 110 147 98 q 153 87 175 80 q 197 73 244 73 l 262 73 l 381 76 q 464 76 502 71 q 541 66 574 49 q 607 32 628 0 q 648 -33 648 -69 q 648 -107 626 -139 q 593 -188 512 -212 q 430 -236 276 -236 q 194 -236 127 -220 q 60 -203 30 -180 q 0 -158 0 -124 q 0 -85 39 -59 q 47 -56 69 -46 q 75 -44 86 -38 z m 313 204 q 342 212 353 231 q 368 257 368 319 q 368 391 342 415 q 324 433 299 433 q 265 433 245 403 q 237 390 232 366 q 228 342 228 314 q 228 262 247 232 q 266 202 297 202 q 301 202 313 204 z m 213 -139 l 259 -147 q 271 -149 293 -149 q 315 -149 325 -149 q 375 -149 420 -145 q 466 -141 480 -130 q 494 -120 494 -105 q 494 -94 485 -86 q 476 -78 464 -74 q 451 -70 425 -70 l 283 -65 l 252 -65 q 198 -65 175 -78 q 152 -90 157 -109 q 159 -120 172 -128 q 184 -135 213 -139 z"},"j":{"x_min":0,"x_max":396,"ha":396,"o":"m 45 -157 q 57 -150 66 -136 q 81 -116 81 -92 q 81 -68 66 -48 q 50 -29 28 -22 q 5 -16 -9 -16 q -28 -16 -53 -26 q -78 -35 -94 -58 q -110 -80 -110 -108 q -110 -145 -81 -177 q -58 -203 -27 -217 q 4 -231 34 -234 q 65 -237 77 -237 q 89 -237 101 -237 q 219 -237 276 -180 q 334 -122 334 -15 l 334 504 l 29 504 l 29 399 l 79 399 q 103 399 113 389 q 118 385 122 378 q 125 370 125 351 l 125 -52 l 124 -85 l 124 -101 l 123 -107 l 121 -120 q 108 -161 65 -161 q 58 -161 55 -160 z m 115 635 q 115 676 144 706 q 172 736 222 736 q 239 736 262 732 q 285 727 307 710 q 341 685 341 642 q 341 605 312 579 q 275 547 228 547 q 179 547 147 573 q 115 599 115 635 z"},"i":{"x_min":0,"x_max":406,"ha":406,"o":"m 11 0 l 400 0 l 400 97 l 349 97 q 324 97 315 114 l 313 122 l 312 127 l 312 144 l 312 504 l 11 504 l 11 404 l 62 404 q 83 404 93 394 q 103 384 103 357 l 103 182 l 103 144 q 103 97 61 97 l 11 97 z m 93 635 q 93 674 122 705 q 151 736 200 736 q 252 736 286 710 q 319 685 319 642 q 319 604 290 579 q 253 547 207 547 q 158 547 126 572 q 93 598 93 635 z"},"y":{"x_min":0,"x_max":672,"ha":672,"o":"m 123 -148 q 138 -157 155 -157 q 189 -157 223 -124 q 234 -114 249 -90 l 260 -73 l 261 -70 l 279 -33 l 87 356 q 75 380 70 385 q 55 403 38 403 l -13 403 l -13 504 l 374 504 l 374 404 l 324 404 q 301 404 301 387 q 301 379 305 371 l 311 357 l 392 183 l 482 357 l 489 371 l 492 379 q 495 387 495 392 q 495 404 479 404 l 429 404 l 429 504 l 687 504 l 687 404 l 671 403 q 651 403 644 399 q 636 395 626 377 l 617 363 l 612 355 l 390 -60 l 370 -93 q 277 -239 164 -239 q 90 -239 44 -210 q -3 -181 -15 -129 q -18 -115 -18 -103 q -18 -56 15 -23 q 48 10 95 10 q 111 10 124 6 q 138 2 151 -5 q 189 -28 189 -71 q 189 -105 163 -126 l 147 -137 z"},".":{"x_min":0,"x_max":265,"ha":265,"o":"m 24 76 q 24 114 54 144 q 84 174 133 174 q 180 174 215 141 q 242 115 242 79 q 242 37 208 12 q 175 -13 132 -13 q 86 -13 55 13 q 24 39 24 76 z"},"p":{"x_min":0,"x_max":725,"ha":725,"o":"m 6 407 l 6 504 l 300 504 l 300 437 q 332 477 381 496 q 430 514 492 514 q 586 514 646 444 q 706 373 706 260 q 706 132 636 62 q 566 -8 447 -8 q 418 -8 389 2 q 360 13 328 33 l 307 48 l 307 -74 q 307 -100 318 -111 q 322 -115 326 -117 q 334 -121 351 -121 l 401 -121 l 401 -216 l 7 -216 l 7 -121 l 60 -121 q 99 -121 99 -74 l 99 389 q 92 407 66 407 z m 376 108 q 388 105 400 105 q 441 105 467 136 q 493 168 493 233 q 493 306 481 343 q 469 380 441 395 q 422 405 401 405 q 375 405 352 390 q 330 375 318 342 q 305 310 305 253 q 305 178 322 146 q 339 115 376 108 z"},"X":{"x_min":0,"x_max":893,"ha":893,"o":"m 0 0 l 0 105 l 51 105 l 73 105 l 77 105 q 94 109 105 117 q 111 121 122 132 q 133 144 140 151 l 311 345 l 132 569 q 119 585 112 592 q 106 600 101 603 q 90 611 72 615 l 67 615 l 57 615 l 7 615 l 7 720 l 462 720 l 462 615 l 443 615 l 432 615 q 406 612 414 588 l 424 569 l 476 480 l 548 569 l 569 597 q 575 611 559 615 l 542 615 l 517 615 l 517 720 l 849 720 l 849 615 l 801 615 l 795 615 q 767 611 752 597 l 728 569 l 579 402 l 782 151 q 804 124 816 116 q 828 107 848 105 l 855 105 l 861 105 l 893 105 l 893 0 l 437 0 l 437 104 l 481 104 l 498 105 l 505 107 q 518 114 518 123 q 518 132 505 151 l 418 274 l 314 151 q 298 134 298 123 q 298 118 303 111 l 312 105 l 324 105 l 375 105 l 375 0 z"},"*":{"x_min":0,"x_max":530,"ha":530,"o":"m 11 489 q 42 565 66 653 l 232 539 l 178 734 q 206 734 264 735 q 322 736 351 736 l 301 540 l 476 639 q 481 615 487 588 q 493 562 507 515 l 519 473 l 319 477 l 462 337 l 426 314 l 390 292 l 353 269 l 317 247 l 265 439 l 185 256 l 119 308 l 51 362 l 213 476 z"},"Y":{"x_min":0,"x_max":816,"ha":816,"o":"m -19 615 l -19 720 l 436 720 l 436 615 l 407 615 l 390 615 l 378 615 q 359 615 359 598 q 359 593 362 587 l 371 569 l 466 422 l 554 569 q 565 586 565 598 q 565 611 552 614 l 548 615 l 506 615 l 506 720 l 835 720 l 835 615 l 809 615 l 802 615 l 789 615 q 765 615 740 582 l 730 569 l 535 291 l 535 151 q 535 125 542 115 q 549 105 567 105 l 580 105 l 592 105 l 665 105 l 665 0 l 164 0 l 164 104 l 236 104 l 248 104 l 263 105 q 296 105 296 151 l 296 177 l 296 276 l 99 569 l 91 581 q 73 605 66 610 q 59 615 39 615 l 32 615 z"},"c":{"x_min":0,"x_max":579,"ha":579,"o":"m 427 400 q 414 410 402 415 q 391 420 373 420 q 364 421 360 421 q 350 421 339 418 q 293 409 270 379 q 247 349 239 286 q 236 257 236 234 q 236 169 258 134 q 280 99 323 88 q 339 84 357 84 q 430 84 450 173 l 452 186 l 567 186 l 564 156 q 550 74 489 28 q 428 -18 324 -18 q 300 -18 273 -15 q 151 -2 84 68 q 18 137 18 245 q 18 278 26 320 q 42 399 108 453 q 175 507 276 517 q 291 518 302 518 q 313 519 320 519 q 407 519 470 486 q 532 453 556 399 q 569 370 569 341 q 569 303 546 274 q 524 246 485 237 q 470 233 452 233 q 419 233 390 250 q 348 274 348 320 q 348 354 375 377 q 386 386 395 390 q 414 399 427 400 z"},"!":{"x_min":0,"x_max":296,"ha":296,"o":"m 43 71 q 47 36 76 12 q 106 -13 151 -13 q 193 -13 226 13 q 259 39 259 80 q 259 115 233 141 q 198 174 152 174 q 102 174 70 144 q 39 113 43 71 z m 207 228 l 98 228 q 98 271 93 307 q 88 343 76 401 l 62 464 l 53 495 l 46 520 l 40 549 q 37 570 37 589 q 37 642 60 676 q 83 709 124 721 q 139 725 153 725 q 167 725 182 721 q 222 709 244 676 q 267 642 267 588 q 267 564 266 553 q 264 542 259 520 l 258 515 l 244 464 l 230 401 q 219 347 213 308 q 207 268 207 228 z"},"/":{"x_min":0,"x_max":708,"ha":708,"o":"m 11 0 l 604 738 l 697 738 l 107 0 z"},"[":{"x_min":0,"x_max":293,"ha":293,"o":"m 30 -152 l 30 872 l 293 873 l 293 720 l 232 723 l 232 -3 l 293 0 l 293 -153 z"},"6":{"x_min":0,"x_max":737,"ha":737,"o":"m 516 571 q 507 573 488 575 q 469 577 455 577 q 422 577 396 571 q 369 565 347 549 q 316 525 300 498 q 285 472 278 426 q 277 410 276 393 q 276 376 275 354 q 308 375 350 386 q 391 397 441 397 q 543 397 619 346 q 658 320 680 279 q 701 238 701 193 q 701 114 641 57 q 603 21 536 -2 q 470 -24 395 -24 q 350 -24 309 -17 q 182 4 112 86 q 42 168 42 299 q 42 318 42 337 q 45 354 46 362 q 62 490 142 568 q 222 645 359 660 q 363 661 378 661 q 394 661 404 662 q 479 662 548 642 q 618 622 644 586 q 670 550 670 516 q 670 464 614 429 q 603 422 588 418 q 573 414 561 414 q 524 414 496 436 q 467 457 462 485 q 461 489 461 492 q 461 497 461 499 q 461 543 502 565 z m 363 69 q 380 66 394 66 q 437 66 462 94 q 488 121 488 173 q 488 243 455 277 q 428 305 382 305 q 335 305 308 276 q 282 246 282 190 q 282 85 363 69 z"},"r":{"x_min":0,"x_max":538,"ha":538,"o":"m 6 0 l 6 97 l 56 97 q 98 97 98 144 l 98 180 l 98 354 q 98 380 88 390 q 79 401 57 401 l 6 401 l 6 504 l 305 504 l 305 435 q 337 503 414 517 q 429 520 444 520 q 482 520 510 502 q 538 485 551 453 q 555 444 558 428 q 561 413 561 404 q 561 367 541 340 q 521 313 489 306 q 475 303 462 303 q 428 303 404 320 q 379 337 374 358 q 370 378 370 389 q 370 415 385 433 q 354 421 334 393 q 306 358 306 317 l 306 144 q 306 116 316 106 q 325 97 355 97 l 406 97 l 406 0 z"},"2":{"x_min":0,"x_max":738,"ha":738,"o":"m 42 0 l 45 31 q 58 125 98 183 q 138 241 226 289 l 230 291 l 302 327 l 317 335 l 356 356 q 437 403 437 459 q 437 500 418 524 q 400 549 355 563 q 344 566 328 568 q 312 570 283 570 l 261 567 q 189 553 167 505 q 183 509 207 509 q 225 507 234 503 q 258 495 272 476 q 286 457 286 432 q 286 416 278 398 q 250 340 175 340 q 160 340 143 343 q 102 352 77 383 q 52 414 52 458 q 52 491 66 522 q 96 592 176 630 q 257 669 379 669 q 471 669 538 641 q 597 616 638 568 q 678 520 678 456 q 678 409 654 366 q 629 323 584 298 q 562 285 536 274 q 510 264 470 253 l 457 250 l 362 226 l 328 217 q 254 194 223 174 q 192 153 171 115 l 196 127 q 240 148 270 157 q 301 166 334 166 q 353 166 379 163 l 407 158 l 415 156 l 458 145 l 482 140 q 498 138 505 138 q 544 138 568 157 q 591 176 591 206 l 594 232 l 692 232 l 692 204 q 692 100 643 44 q 594 -12 502 -12 q 437 -12 354 16 l 309 32 l 294 37 l 270 44 q 243 50 223 50 q 172 50 151 11 l 146 0 z"},"{":{"x_min":0,"x_max":367,"ha":367,"o":"m 29 360 q 58 360 77 380 q 96 400 96 432 l 96 742 q 96 790 122 816 q 148 842 195 842 l 338 842 l 338 756 l 325 756 q 295 756 282 745 q 269 734 269 708 l 269 454 q 269 390 207 366 l 180 360 l 207 354 q 235 343 252 319 q 269 295 269 266 l 269 12 q 269 -36 325 -36 l 338 -36 l 338 -122 l 195 -122 q 148 -122 122 -96 q 96 -70 96 -22 l 96 288 q 96 318 77 339 q 58 360 29 360 z"},"9":{"x_min":0,"x_max":737,"ha":737,"o":"m 224 71 q 238 66 247 64 q 274 57 294 57 q 320 57 344 65 q 369 73 393 93 q 425 121 440 146 q 455 170 462 216 q 464 228 464 249 q 465 270 465 276 q 465 287 465 289 q 430 267 391 256 q 352 245 300 245 q 198 245 121 297 q 82 323 61 364 q 40 404 40 449 q 40 488 54 522 q 69 556 100 585 q 139 621 204 644 q 269 666 346 666 q 374 666 388 665 q 402 664 432 659 q 559 638 628 556 q 698 475 698 343 q 698 324 698 305 q 695 288 694 280 q 679 155 600 81 q 521 7 381 -18 q 342 -25 303 -25 q 238 -25 185 -4 q 132 17 99 53 q 66 89 66 129 q 66 191 127 213 q 139 217 160 222 q 182 226 193 226 q 226 226 246 213 q 273 196 279 157 q 280 153 280 144 q 280 100 238 77 q 235 77 229 74 q 228 73 224 71 z m 353 337 q 366 336 370 336 q 410 336 434 368 q 458 399 458 452 q 458 557 377 574 q 362 577 348 577 q 306 577 280 550 q 253 522 253 472 q 252 460 252 451 q 252 410 268 382 q 293 337 353 337 z"}," ":{"x_min":0,"x_max":290,"ha":290,"o":""},"I":{"x_min":0,"x_max":502,"ha":502,"o":"m 6 615 l 6 720 l 496 720 l 496 615 l 422 615 l 402 615 q 390 615 385 608 q 380 602 376 581 l 375 569 l 375 151 q 375 123 380 114 q 384 105 399 105 l 406 105 l 418 104 l 495 104 l 495 0 l 7 0 l 7 105 l 79 105 l 91 105 l 101 105 q 116 107 123 116 q 130 126 130 151 l 130 181 l 130 569 q 130 614 105 614 l 97 615 l 85 615 z"},"H":{"x_min":0,"x_max":1007,"ha":1007,"o":"m 6 0 l 6 105 l 83 105 l 94 105 l 102 105 q 121 105 127 138 l 128 151 l 128 569 q 128 595 123 604 q 118 613 103 615 l 94 615 l 82 615 l 7 615 l 7 720 l 472 720 l 472 615 l 400 615 l 390 615 l 387 614 q 377 613 373 596 l 373 569 l 373 424 l 634 424 l 634 569 l 634 596 l 633 603 q 628 612 620 614 l 616 615 l 607 615 l 535 615 l 535 720 l 1000 720 l 1000 615 l 925 615 l 913 615 l 904 615 q 890 613 884 604 q 878 594 878 569 l 878 151 l 880 138 q 884 105 905 105 l 912 105 l 924 105 l 1001 105 l 1001 0 l 536 0 l 536 104 l 594 104 l 612 104 q 623 104 628 115 q 634 126 634 151 l 634 317 l 373 317 l 373 151 l 373 130 l 373 124 q 373 104 399 104 l 471 104 l 471 0 z"},"4":{"x_min":0,"x_max":737,"ha":737,"o":"m 23 198 l 23 310 l 396 661 l 587 661 l 587 300 l 701 300 l 701 199 l 587 199 l 587 151 l 587 138 q 591 105 611 105 l 701 105 l 701 0 l 246 0 l 246 105 l 339 105 q 364 105 364 151 l 364 198 z m 365 301 l 365 487 l 166 301 z"},"~":{"x_min":0,"x_max":519,"ha":519,"o":"m 29 265 l 30 293 q 38 377 74 420 q 109 463 165 463 q 192 463 229 450 l 314 418 l 334 411 q 343 407 352 407 q 370 407 380 438 l 384 455 l 385 464 l 490 464 l 488 437 q 481 353 446 310 q 411 267 354 267 q 336 267 320 270 q 305 274 289 280 l 205 311 l 184 319 q 172 323 168 323 q 149 323 139 292 q 135 282 135 275 l 134 265 z"},"D":{"x_min":0,"x_max":944,"ha":944,"o":"m 6 615 l 6 720 l 463 720 q 691 720 809 632 q 927 544 927 381 q 927 336 916 279 q 888 139 778 70 q 669 0 462 0 l 7 0 l 7 105 l 102 105 q 131 105 131 151 l 132 569 q 132 577 132 581 q 132 602 129 607 q 125 614 107 614 q 99 615 88 615 q 76 615 65 616 q 45 616 32 616 q 18 616 6 615 z m 456 108 q 561 108 608 155 q 659 206 659 325 q 659 343 659 362 q 659 380 660 399 q 660 525 616 568 q 573 612 460 612 l 374 612 l 376 108 z"},"^":{"x_min":0,"x_max":525,"ha":525,"o":"m 29 149 l 262 571 l 496 149 l 332 149 l 262 295 l 193 149 z"},"0":{"x_min":0,"x_max":738,"ha":738,"o":"m 363 672 q 520 672 621 575 q 722 478 722 331 q 722 184 622 78 q 521 -27 375 -27 q 211 -27 112 70 q 13 167 13 316 q 13 463 116 568 q 218 672 363 672 z m 252 312 q 252 199 268 153 q 296 72 384 72 q 469 72 486 200 q 492 245 492 330 q 492 444 477 489 q 450 570 366 570 q 293 570 268 483 q 252 428 252 312 z"},"F":{"x_min":0,"x_max":814,"ha":814,"o":"m 6 615 l 6 720 l 816 720 l 816 448 l 696 448 l 696 476 l 693 506 q 672 614 567 614 l 527 614 l 500 614 l 371 614 l 371 425 l 393 425 l 403 425 l 421 426 q 501 426 501 508 l 502 527 l 607 527 l 607 215 l 504 215 l 503 231 l 501 248 q 494 289 472 306 q 450 322 400 322 l 371 322 l 371 151 q 371 105 405 105 l 420 105 l 431 105 l 504 105 l 504 0 l 7 0 l 7 105 l 79 105 l 91 105 l 100 105 q 114 107 120 116 q 126 126 126 151 l 126 165 l 126 569 q 126 614 100 614 l 91 615 l 78 615 z"},"`":{"x_min":0,"x_max":263,"ha":263,"o":"m 0 696 l 74 784 l 237 620 l 190 563 z"},"k":{"x_min":0,"x_max":769,"ha":769,"o":"m 6 623 l 6 720 l 307 720 l 307 274 l 418 354 q 442 372 444 374 q 449 379 448 385 q 448 397 433 402 l 400 402 l 386 402 l 386 504 l 732 504 l 732 403 l 682 403 q 655 403 622 385 q 612 380 581 356 l 550 331 l 676 144 l 687 128 l 691 122 l 698 115 q 716 97 730 97 l 780 97 l 780 0 l 396 0 l 396 97 l 408 97 l 415 98 q 439 98 439 109 q 439 114 436 122 l 424 144 l 390 209 l 305 150 l 305 137 l 306 122 q 306 109 310 105 q 314 101 327 99 l 339 97 l 344 97 l 363 97 l 363 0 l 6 0 l 6 97 l 57 97 q 83 97 93 114 q 95 117 96 120 q 98 127 98 144 l 98 188 l 98 576 l 98 595 q 97 605 88 614 q 79 623 58 623 z"},"u":{"x_min":0,"x_max":765,"ha":765,"o":"m 6 404 l 6 504 l 297 504 l 297 210 l 299 174 q 302 145 322 128 q 341 110 369 110 q 388 110 412 121 q 465 148 465 224 l 465 355 q 465 403 428 403 l 377 403 l 377 504 l 673 504 l 673 144 q 673 136 673 128 q 673 121 677 114 q 686 97 709 97 l 759 97 l 759 0 l 472 0 l 472 65 l 458 51 q 426 20 390 4 q 355 -11 306 -11 q 176 -11 132 34 q 88 79 88 213 l 88 357 l 88 377 l 86 386 q 79 404 60 404 z"},"]":{"x_min":0,"x_max":293,"ha":293,"o":"m 0 -153 l 0 0 l 62 -3 l 62 723 l 0 720 l 0 873 l 263 872 l 263 -152 z"},"U":{"x_min":0,"x_max":917,"ha":917,"o":"m 4 615 l 4 720 l 477 720 l 477 615 l 405 615 q 381 615 372 606 q 364 596 364 569 l 364 267 l 365 223 q 365 159 396 126 q 428 92 493 92 q 505 92 519 93 q 533 94 548 97 q 651 115 651 207 l 653 238 l 653 247 l 653 569 q 653 595 649 604 q 645 613 633 615 l 628 615 l 617 615 l 545 615 l 545 720 l 913 720 l 913 615 l 840 615 l 829 615 l 822 615 q 809 613 804 603 q 798 593 798 569 l 798 257 q 798 132 746 70 q 694 8 572 -12 q 528 -18 467 -18 q 267 -18 193 47 q 119 112 119 277 l 119 569 q 119 612 94 615 l 85 615 l 73 615 z"},"o":{"x_min":0,"x_max":668,"ha":668,"o":"m 336 516 q 478 516 565 443 q 652 370 652 248 q 652 133 554 58 q 462 -12 336 -12 q 209 -12 117 52 q 16 123 16 236 q 16 361 104 438 q 191 516 336 516 z m 234 246 q 234 155 265 116 q 290 84 336 84 q 399 84 419 140 q 430 172 430 254 q 430 350 400 390 q 375 424 328 424 q 276 424 252 365 q 234 320 234 246 z"},"N":{"x_min":0,"x_max":958,"ha":958,"o":"m 6 615 l 6 720 l 397 720 l 693 243 l 693 569 q 693 592 686 602 q 679 613 664 615 l 655 615 l 643 615 l 570 615 l 570 720 l 952 720 l 952 615 l 876 615 l 864 615 l 856 615 q 842 613 836 603 q 829 593 829 569 l 829 0 l 589 0 l 266 521 l 269 151 q 269 108 293 105 l 301 105 l 312 105 l 385 105 l 385 0 l 6 0 l 6 105 l 78 105 l 91 105 l 100 105 q 115 107 122 116 q 129 126 129 151 l 129 569 q 129 612 102 615 l 92 615 l 80 615 z"},"G":{"x_min":0,"x_max":911,"ha":911,"o":"m 648 663 l 668 720 l 789 720 l 789 442 l 668 442 q 668 453 665 463 q 662 473 660 479 q 639 549 589 582 q 539 616 464 616 q 386 616 340 559 q 290 497 290 388 q 290 242 342 163 q 391 89 476 89 q 492 89 504 92 q 517 95 530 101 q 558 113 570 128 q 583 143 583 159 l 583 229 l 581 241 q 577 265 570 271 q 563 277 540 277 l 491 276 l 470 277 l 470 382 l 900 377 l 900 273 l 858 272 l 833 272 q 824 272 817 263 q 807 250 807 232 l 806 226 l 806 0 l 700 0 l 672 72 l 647 48 q 606 13 555 -4 q 504 -22 437 -22 q 391 -22 345 -15 q 195 5 106 105 q 18 205 18 348 q 18 398 32 456 q 45 515 86 572 q 126 628 190 670 q 218 689 248 702 q 279 714 319 723 q 378 735 429 735 q 499 735 554 716 q 608 698 648 663 z"},"q":{"x_min":0,"x_max":726,"ha":726,"o":"m 468 442 l 499 504 l 640 504 l 640 -77 q 640 -106 648 -115 q 656 -124 680 -124 l 720 -124 l 720 -216 l 344 -216 l 344 -129 l 374 -129 q 407 -129 419 -119 q 431 -109 431 -86 l 431 43 q 372 -7 288 -15 q 279 -16 263 -16 q 155 -16 87 55 q 54 89 36 136 q 19 182 19 241 q 19 266 22 293 q 34 393 107 455 q 180 517 285 517 q 345 517 412 480 q 434 468 468 442 z m 266 145 q 290 112 334 112 q 383 112 410 152 q 422 170 428 189 q 433 208 433 244 q 433 311 414 353 q 395 395 362 395 q 306 395 278 370 q 243 338 243 263 q 243 229 250 194 q 256 158 266 145 z"},"d":{"x_min":0,"x_max":738,"ha":738,"o":"m 429 461 l 429 576 q 429 602 420 612 q 410 623 389 623 l 339 623 l 339 720 l 638 720 l 638 144 q 638 118 648 108 q 657 97 679 97 l 732 97 l 732 0 l 436 0 l 436 63 q 417 41 391 24 q 337 -12 251 -12 q 200 -12 156 10 q 113 31 78 71 q 18 140 18 245 q 18 279 24 318 q 38 404 98 460 q 158 515 244 525 q 249 526 258 526 q 304 526 371 494 q 393 484 429 461 z m 316 108 q 330 105 340 105 q 385 105 408 152 q 430 199 430 299 q 430 347 410 372 q 396 389 369 399 q 356 404 340 404 q 300 404 272 366 q 245 327 245 263 q 245 161 265 132 q 275 117 316 108 z"},"1":{"x_min":0,"x_max":736,"ha":736,"o":"m 150 481 l 150 574 l 188 574 q 260 574 316 639 l 326 651 l 334 660 l 491 660 l 491 151 l 491 139 q 491 120 496 114 q 500 107 513 105 l 518 105 l 590 105 l 590 0 l 153 0 l 153 104 l 225 104 l 237 105 l 245 105 q 258 105 264 115 q 270 125 270 151 l 270 191 l 270 481 z"},"5":{"x_min":0,"x_max":737,"ha":737,"o":"m 170 108 q 217 79 273 79 q 348 79 393 116 q 438 153 443 203 q 444 210 444 224 q 444 285 405 321 q 366 357 297 357 l 268 354 q 243 349 226 339 q 210 329 201 315 l 93 315 l 109 662 q 159 656 220 651 q 280 646 327 646 q 435 646 495 648 q 555 650 641 667 q 629 590 543 556 q 457 523 246 523 l 213 523 l 206 408 q 241 427 272 436 q 304 445 334 448 q 365 452 379 452 q 393 452 400 452 q 515 452 588 396 q 657 343 669 257 q 670 247 670 240 q 671 232 671 227 q 671 135 599 72 q 527 10 388 -4 q 353 -8 315 -8 q 232 -8 172 13 q 112 34 82 69 q 65 88 56 111 q 47 134 47 156 q 47 231 119 260 q 145 269 167 269 q 201 269 227 252 q 253 234 261 207 q 263 201 264 194 q 265 187 265 181 q 265 150 245 128 q 225 106 193 106 q 178 106 170 108 z"}}}
